<?xml version="1.0" encoding="UTF-8"?>
<svg version="1.1" xmlns="http://www.w3.org/2000/svg" width="124" height="137">
<path d="M0 0 C1.06734375 -0.00128906 2.1346875 -0.00257812 3.234375 -0.00390625 C4.35328125 -0.00003906 5.4721875 0.00382813 6.625 0.0078125 C7.74390625 0.00394531 8.8628125 0.00007812 10.015625 -0.00390625 C11.61664063 -0.00197266 11.61664063 -0.00197266 13.25 0 C14.72339844 0.00169189 14.72339844 0.00169189 16.2265625 0.00341797 C18.625 0.1328125 18.625 0.1328125 20.625 1.1328125 C20.625 3.7728125 20.625 6.4128125 20.625 9.1328125 C22.23181641 9.11541016 22.23181641 9.11541016 23.87109375 9.09765625 C25.26822743 9.08827951 26.66536299 9.07917919 28.0625 9.0703125 C28.76955078 9.06193359 29.47660156 9.05355469 30.20507812 9.04492188 C32.01193559 9.03627662 33.81887603 9.08061239 35.625 9.1328125 C36.12 9.6278125 36.12 9.6278125 36.625 10.1328125 C36.56045826 12.42697803 36.42316087 14.719281 36.25 17.0078125 C36.15976563 18.26335938 36.06953125 19.51890625 35.9765625 20.8125 C35.625 24.1328125 35.625 24.1328125 34.625 27.1328125 C32.975 27.1328125 31.325 27.1328125 29.625 27.1328125 C29.79515625 27.85831299 29.9653125 28.58381348 30.140625 29.33129883 C35.04273612 50.24838533 39.85436516 71.18537164 44.625 92.1328125 C46.6428477 92.08169556 48.66069539 92.03057861 50.67854309 91.97946167 C52.625 92.1328125 52.625 92.1328125 54.63671875 93.703125 C55.98032932 97.00638892 55.76119468 99.46621184 55.4375 103.0078125 C55.34082031 104.20148438 55.24414062 105.39515625 55.14453125 106.625 C54.625 110.1328125 54.625 110.1328125 52.625 116.1328125 C22.595 116.1328125 -7.435 116.1328125 -38.375 116.1328125 C-39.99778798 111.26444856 -40.73648715 107.93170569 -41.0625 102.9453125 C-41.14886719 101.73488281 -41.23523437 100.52445312 -41.32421875 99.27734375 C-41.375 96.1328125 -41.375 96.1328125 -40.375 93.1328125 C-36.96390111 91.42726305 -33.1273683 92.07920724 -29.375 92.1328125 C-29.271875 90.93914062 -29.16875 89.74546875 -29.0625 88.515625 C-28.32874128 81.91438014 -26.81569232 75.48413223 -25.375 69.0078125 C-24.83108587 66.54737076 -24.28935019 64.08644623 -23.75 61.625 C-23.51023437 60.54589355 -23.27046875 59.46678711 -23.0234375 58.35498047 C-22.34008543 54.95931756 -21.84119817 51.56441288 -21.375 48.1328125 C-20.60730398 43.79636744 -19.46281394 39.56793816 -18.3125 35.3203125 C-18.12623047 34.62744141 -17.93996094 33.93457031 -17.74804688 33.22070312 C-17.29178802 31.52435609 -16.83359046 29.8285307 -16.375 28.1328125 C-18.025 27.4728125 -19.675 26.8128125 -21.375 26.1328125 C-21.54455795 24.40392695 -21.71051514 22.67468807 -21.875 20.9453125 C-21.9678125 19.98238281 -22.060625 19.01945312 -22.15625 18.02734375 C-22.35684877 15.37299219 -22.48837564 12.79241601 -22.375 10.1328125 C-20.43409174 8.19190424 -16.90206098 8.73361815 -14.3125 8.5703125 C-12.37697266 8.44462891 -12.37697266 8.44462891 -10.40234375 8.31640625 C-9.40332031 8.25582031 -8.40429688 8.19523437 -7.375 8.1328125 C-7.375 5.8228125 -7.375 3.5128125 -7.375 1.1328125 C-4.78776011 -0.16080744 -2.89386997 0.00332301 0 0 Z M-1.375 7.1328125 C-1.375 7.7928125 -1.375 8.4528125 -1.375 9.1328125 C3.905 9.1328125 9.185 9.1328125 14.625 9.1328125 C14.625 8.4728125 14.625 7.8128125 14.625 7.1328125 C9.345 7.1328125 4.065 7.1328125 -1.375 7.1328125 Z M-16.375 15.1328125 C-16.045 17.4428125 -15.715 19.7528125 -15.375 22.1328125 C-9.12704325 22.15808374 -2.87909959 22.17564594 3.36889648 22.18774414 C5.49618014 22.19278548 7.62346031 22.19961841 9.75073242 22.20825195 C12.80127826 22.22032629 15.85177845 22.22604264 18.90234375 22.23046875 C19.85962875 22.23563004 20.81691376 22.24079132 21.8032074 22.24610901 C22.68404495 22.24618454 23.56488251 22.24626007 24.47241211 22.24633789 C25.25184677 22.2485585 26.03128143 22.25077911 26.83433533 22.25306702 C28.64866535 22.32852636 28.64866535 22.32852636 29.625 21.1328125 C29.625 19.1528125 29.625 17.1728125 29.625 15.1328125 C14.445 15.1328125 -0.735 15.1328125 -16.375 15.1328125 Z M-1.375 27.1328125 C-1.375 28.1228125 -1.375 29.1128125 -1.375 30.1328125 C1.595 31.7828125 4.565 33.4328125 7.625 35.1328125 C8.78 34.3696875 9.935 33.6065625 11.125 32.8203125 C11.7746875 32.39105469 12.424375 31.96179688 13.09375 31.51953125 C13.85171875 30.83310547 13.85171875 30.83310547 14.625 30.1328125 C14.625 29.1428125 14.625 28.1528125 14.625 27.1328125 C9.345 27.1328125 4.065 27.1328125 -1.375 27.1328125 Z M-10.375 34.1328125 C-10.71372513 35.54819967 -11.04574624 36.96519213 -11.375 38.3828125 C-11.560625 39.17171875 -11.74625 39.960625 -11.9375 40.7734375 C-12.49654828 43.38837252 -12.49654828 43.38837252 -12.375 47.1328125 C-10.725 46.4728125 -9.075 45.8128125 -7.375 45.1328125 C-7.375 41.5028125 -7.375 37.8728125 -7.375 34.1328125 C-8.365 34.1328125 -9.355 34.1328125 -10.375 34.1328125 Z M21.625 34.1328125 C20.0461316 35.7116809 20.34180258 37.32573587 20.25 39.5078125 C20.19059366 41.92755877 20.19059366 41.92755877 20.625 44.1328125 C22.96249166 46.28883944 22.96249166 46.28883944 25.625 47.1328125 C25.48269192 45.71578737 25.33599254 44.2992029 25.1875 42.8828125 C25.10628906 42.09390625 25.02507812 41.305 24.94140625 40.4921875 C24.64865007 38.30916611 24.20435581 36.2554943 23.625 34.1328125 C22.965 34.1328125 22.305 34.1328125 21.625 34.1328125 Z M6.625 44.1328125 C3.56627906 45.4300379 0.98956436 46.77343359 -1.375 49.1328125 C-2.0864192 52.5591329 -1.85730236 55.68301093 -1.375 59.1328125 C1.54216852 60.85268509 4.33144926 62.29900219 7.625 63.1328125 C10.57104101 62.27888757 12.14171713 61.03490151 14.625 59.1328125 C15.10730236 55.68301093 15.3364192 52.5591329 14.625 49.1328125 C12.26043564 46.77343359 9.68372094 45.4300379 6.625 44.1328125 Z M20.625 53.1328125 C21.625 55.1328125 21.625 55.1328125 21.625 55.1328125 Z M-15.375 58.1328125 C-16.07388677 60.88036737 -16.7593988 63.63012447 -17.4375 66.3828125 C-17.73624023 67.54876953 -17.73624023 67.54876953 -18.04101562 68.73828125 C-18.22470703 69.49238281 -18.40839844 70.24648437 -18.59765625 71.0234375 C-18.77047119 71.71469727 -18.94328613 72.40595703 -19.12133789 73.11816406 C-19.40656637 75.38352059 -19.05576195 76.9696437 -18.375 79.1328125 C-11.16736251 75.76812511 -11.16736251 75.76812511 -6.36328125 69.83984375 C-6.16272586 67.1791423 -6.29919736 65.58198021 -7.375 63.1328125 C-9.8013595 60.8934957 -12.36844859 59.4683119 -15.375 58.1328125 Z M20.625 63.1328125 C19.66572703 65.52177114 19.4895497 67.23491303 19.6171875 69.8046875 C21.81683262 74.88603823 27.83967533 76.91817564 32.625 79.1328125 C32.05478625 72.17620479 30.61197306 65.81853945 28.625 59.1328125 C25.00290065 59.1328125 23.25961182 60.78457153 20.625 63.1328125 Z M0.11328125 74.95703125 C-3.24666524 79.86907901 -1.69042231 87.59039193 -1.375 93.1328125 C3.905 93.1328125 9.185 93.1328125 14.625 93.1328125 C14.625 87.5228125 14.625 81.9128125 14.625 76.1328125 C7.10261513 71.34731278 7.10261513 71.34731278 0.11328125 74.95703125 Z M20.625 81.1328125 C20.625 85.0928125 20.625 89.0528125 20.625 93.1328125 C25.575 93.1328125 30.525 93.1328125 35.625 93.1328125 C35.625 91.8128125 35.625 90.4928125 35.625 89.1328125 C33.3139639 87.79688453 31.00128245 86.46396819 28.6875 85.1328125 C28.02814453 84.75125 27.36878906 84.3696875 26.68945312 83.9765625 C23.82731498 82.00772203 23.82731498 82.00772203 20.625 81.1328125 Z M-15.4375 85.5078125 C-16.10072266 85.9203125 -16.76394531 86.3328125 -17.44726562 86.7578125 C-19.12627257 87.82768332 -20.75536072 88.97503165 -22.375 90.1328125 C-22.375 90.7928125 -22.375 91.4528125 -22.375 92.1328125 C-17.425 92.4628125 -12.475 92.7928125 -7.375 93.1328125 C-7.375 89.1728125 -7.375 85.2128125 -7.375 81.1328125 C-10.01102729 81.1328125 -13.18518234 84.07231777 -15.4375 85.5078125 Z M-34.375 99.1328125 C-34.375 102.7628125 -34.375 106.3928125 -34.375 110.1328125 C-7.315 110.1328125 19.745 110.1328125 47.625 110.1328125 C48.90795823 105.68816385 48.90795823 105.68816385 48.625 99.1328125 C21.235 99.1328125 -6.155 99.1328125 -34.375 99.1328125 Z " fill="#1166b7" transform="translate(55.375,12.8671875)"/>
<path d="" fill="#000000" transform="translate(0,0)"/>
<path d="" fill="#000000" transform="translate(0,0)"/>
<path d="" fill="#000000" transform="translate(0,0)"/>
<path d="" fill="#0000FF" transform="translate(0,0)"/>
</svg>
